<svg width="129" height="19" viewBox="0 0 129 19" fill="none" xmlns="http://www.w3.org/2000/svg">
<path d="M8.08594 12.6445V0.9375H12.1875V12.6445C12.1875 13.7852 11.9258 14.7734 11.4023 15.6094C10.8867 16.4453 10.1836 17.0938 9.29297 17.5547C8.41016 18.0078 7.41797 18.2344 6.31641 18.2344C5.17578 18.2344 4.16016 18.043 3.26953 17.6602C2.38672 17.2773 1.69141 16.6875 1.18359 15.8906C0.683594 15.0938 0.433594 14.0781 0.433594 12.8438H4.55859C4.55859 13.4219 4.625 13.875 4.75781 14.2031C4.89062 14.5234 5.08594 14.75 5.34375 14.8828C5.60938 15.0078 5.93359 15.0703 6.31641 15.0703C6.69141 15.0703 7.00781 14.9766 7.26562 14.7891C7.53125 14.5938 7.73438 14.3164 7.875 13.957C8.01562 13.5898 8.08594 13.1523 8.08594 12.6445ZM26.543 14.8359V18H17.4492V14.8359H26.543ZM18.9141 0.9375V18H14.8008V0.9375H18.9141ZM25.3711 7.71094V10.7695H17.4492V7.71094H25.3711ZM26.5781 0.9375V4.11328H17.4492V0.9375H26.5781ZM41.0039 14.8359V18H28.6523V14.8359H41.0039ZM40.9219 3.04688L30.6914 18H27.7148V15.832L38.0625 0.9375H40.9219V3.04688ZM39.5977 0.9375V4.11328H27.6562V0.9375H39.5977Z" fill="#FB9333"/>
<path d="M63.9375 13.5352C63.9375 13.2305 63.8906 12.957 63.7969 12.7148C63.7109 12.4648 63.5469 12.2383 63.3047 12.0352C63.0625 11.8242 62.7227 11.6172 62.2852 11.4141C61.8477 11.2109 61.2812 11 60.5859 10.7812C59.8125 10.5312 59.0781 10.25 58.3828 9.9375C57.6953 9.625 57.0859 9.26172 56.5547 8.84766C56.0312 8.42578 55.6172 7.9375 55.3125 7.38281C55.0156 6.82812 54.8672 6.18359 54.8672 5.44922C54.8672 4.73828 55.0234 4.09375 55.3359 3.51562C55.6484 2.92969 56.0859 2.42969 56.6484 2.01562C57.2109 1.59375 57.875 1.26953 58.6406 1.04297C59.4141 0.816406 60.2617 0.703125 61.1836 0.703125C62.4414 0.703125 63.5391 0.929687 64.4766 1.38281C65.4141 1.83594 66.1406 2.45703 66.6562 3.24609C67.1797 4.03516 67.4414 4.9375 67.4414 5.95312H63.9492C63.9492 5.45312 63.8438 5.01562 63.6328 4.64062C63.4297 4.25781 63.1172 3.95703 62.6953 3.73828C62.2812 3.51953 61.7578 3.41016 61.125 3.41016C60.5156 3.41016 60.0078 3.50391 59.6016 3.69141C59.1953 3.87109 58.8906 4.11719 58.6875 4.42969C58.4844 4.73438 58.3828 5.07812 58.3828 5.46094C58.3828 5.75 58.4531 6.01172 58.5938 6.24609C58.7422 6.48047 58.9609 6.69922 59.25 6.90234C59.5391 7.10547 59.8945 7.29688 60.3164 7.47656C60.7383 7.65625 61.2266 7.83203 61.7812 8.00391C62.7109 8.28516 63.5273 8.60156 64.2305 8.95312C64.9414 9.30469 65.5352 9.69922 66.0117 10.1367C66.4883 10.5742 66.8477 11.0703 67.0898 11.625C67.332 12.1797 67.4531 12.8086 67.4531 13.5117C67.4531 14.2539 67.3086 14.918 67.0195 15.5039C66.7305 16.0898 66.3125 16.5859 65.7656 16.9922C65.2188 17.3984 64.5664 17.707 63.8086 17.918C63.0508 18.1289 62.2031 18.2344 61.2656 18.2344C60.4219 18.2344 59.5898 18.125 58.7695 17.9062C57.9492 17.6797 57.2031 17.3398 56.5312 16.8867C55.8672 16.4336 55.3359 15.8555 54.9375 15.1523C54.5391 14.4492 54.3398 13.6172 54.3398 12.6562H57.8672C57.8672 13.1875 57.9492 13.6367 58.1133 14.0039C58.2773 14.3711 58.5078 14.668 58.8047 14.8945C59.1094 15.1211 59.4688 15.2852 59.8828 15.3867C60.3047 15.4883 60.7656 15.5391 61.2656 15.5391C61.875 15.5391 62.375 15.4531 62.7656 15.2812C63.1641 15.1094 63.457 14.8711 63.6445 14.5664C63.8398 14.2617 63.9375 13.918 63.9375 13.5352ZM76.7812 3.85547L72.1406 18H68.4023L74.7422 0.9375H77.1211L76.7812 3.85547ZM80.6367 18L75.9844 3.85547L75.6094 0.9375H78.0117L84.3867 18H80.6367ZM80.4258 11.6484V14.4023H71.4141V11.6484H80.4258ZM96.9375 15.2578V18H88.3477V15.2578H96.9375ZM89.4844 0.9375V18H85.9688V0.9375H89.4844ZM106.125 3.85547L101.484 18H97.7461L104.086 0.9375H106.465L106.125 3.85547ZM109.98 18L105.328 3.85547L104.953 0.9375H107.355L113.73 18H109.98ZM109.77 11.6484V14.4023H100.758V11.6484H109.77ZM120.551 18H116.836L116.859 15.2578H120.551C121.473 15.2578 122.25 15.0508 122.883 14.6367C123.516 14.2148 123.992 13.6016 124.312 12.7969C124.641 11.9922 124.805 11.0195 124.805 9.87891V9.04688C124.805 8.17188 124.711 7.40234 124.523 6.73828C124.344 6.07422 124.074 5.51562 123.715 5.0625C123.355 4.60938 122.914 4.26953 122.391 4.04297C121.867 3.80859 121.266 3.69141 120.586 3.69141H116.766V0.9375H120.586C121.727 0.9375 122.77 1.13281 123.715 1.52344C124.668 1.90625 125.492 2.45703 126.188 3.17578C126.883 3.89453 127.418 4.75391 127.793 5.75391C128.176 6.74609 128.367 7.85156 128.367 9.07031V9.87891C128.367 11.0898 128.176 12.1953 127.793 13.1953C127.418 14.1953 126.883 15.0547 126.188 15.7734C125.5 16.4844 124.676 17.0352 123.715 17.4258C122.762 17.8086 121.707 18 120.551 18ZM118.828 0.9375V18H115.312V0.9375H118.828Z" fill="#585858"/>
</svg>
