<svg width="67" height="60" viewBox="0 0 67 60" fill="none" xmlns="http://www.w3.org/2000/svg">
<path d="M32 60C15.4315 60 2 46.5685 2 30C2 13.4315 15.4315 0 32 0C48.5685 0 62 13.4315 62 30C62 46.5685 48.5685 60 32 60Z" fill="#FFDA6A"/>
<g filter="url(#filter0_f_1_999)">
<path d="M49.3333 35.9999C46.3878 35.9999 44 33.6121 44 30.6666C44 27.7211 46.3878 25.3333 49.3333 25.3333C52.2788 25.3333 54.6666 27.7211 54.6666 30.6666C54.6666 33.6121 52.2788 35.9999 49.3333 35.9999Z" fill="#F55065"/>
</g>
<g filter="url(#filter1_f_1_999)">
<path d="M18.0006 27.3332C15.0551 27.3332 12.6673 24.9454 12.6673 21.9998C12.6673 19.0543 15.0551 16.6665 18.0006 16.6665C20.9461 16.6665 23.3339 19.0543 23.3339 21.9998C23.3339 24.9454 20.9461 27.3332 18.0006 27.3332Z" fill="#F55065"/>
</g>
<path fill-rule="evenodd" clip-rule="evenodd" d="M39.498 19.1281C40.8633 14.9261 45.3765 12.6264 49.5786 13.9918C53.7806 15.3571 56.0802 19.8703 54.7149 24.0724C54.4873 24.7727 53.7351 25.156 53.0348 24.9284C52.3344 24.7009 51.9512 23.9487 52.1787 23.2483C53.0889 20.447 51.5559 17.4381 48.7545 16.5279C45.9532 15.6177 42.9443 17.1508 42.0341 19.9521C41.8066 20.6525 41.0544 21.0357 40.354 20.8082C39.6537 20.5806 39.2704 19.8284 39.498 19.1281ZM18.1646 12.4614C19.53 8.25939 24.0432 5.95978 28.2452 7.3251C32.4473 8.69043 34.7469 13.2037 33.3815 17.4057C33.154 18.106 32.4018 18.4893 31.7014 18.2617C31.0011 18.0342 30.6178 17.282 30.8454 16.5816C31.7556 13.7803 30.2225 10.7715 27.4212 9.86125C24.6198 8.95104 21.611 10.4841 20.7008 13.2855C20.4732 13.9858 19.721 14.3691 19.0207 14.1415C18.3203 13.914 17.9371 13.1618 18.1646 12.4614ZM45.8596 31.9296C45.0838 33.4812 40.588 35.3437 36.5516 35.499C30.7643 35.7215 25.6502 32.9785 22.1654 26.6425C21.8105 25.9973 22.0459 25.1865 22.6911 24.8316C23.3363 24.4768 24.1471 24.7122 24.502 25.3574C27.4888 30.788 31.6482 33.0189 36.4491 32.8343C38.2423 32.7653 40.0272 32.3462 41.5733 31.7056C42.1935 31.4487 42.7367 31.17 43.14 30.9114C43.3057 30.8051 43.4362 30.7094 43.5211 30.6353C43.5375 30.621 43.5257 30.6344 43.4744 30.737C43.8037 30.0783 44.6046 29.8114 45.2633 30.1407C45.9219 30.47 46.1889 31.2709 45.8596 31.9296Z" fill="black"/>
<defs>
<filter id="filter0_f_1_999" x="32.2353" y="13.5685" width="34.1961" height="34.196" filterUnits="userSpaceOnUse" color-interpolation-filters="sRGB">
<feFlood flood-opacity="0" result="BackgroundImageFix"/>
<feBlend mode="normal" in="SourceGraphic" in2="BackgroundImageFix" result="shape"/>
<feGaussianBlur stdDeviation="5.88235" result="effect1_foregroundBlur_1_999"/>
</filter>
<filter id="filter1_f_1_999" x="0.90255" y="4.9018" width="34.1961" height="34.196" filterUnits="userSpaceOnUse" color-interpolation-filters="sRGB">
<feFlood flood-opacity="0" result="BackgroundImageFix"/>
<feBlend mode="normal" in="SourceGraphic" in2="BackgroundImageFix" result="shape"/>
<feGaussianBlur stdDeviation="5.88235" result="effect1_foregroundBlur_1_999"/>
</filter>
</defs>
</svg>
