<svg width="12" height="12" viewBox="0 0 12 12" fill="none" xmlns="http://www.w3.org/2000/svg">
<path d="M9.4523 7.35337C9.30122 7.49979 9.2318 7.71154 9.26622 7.91921L9.7848 10.7892C9.82855 11.0325 9.72588 11.2786 9.5223 11.4192C9.3228 11.565 9.05738 11.5825 8.8398 11.4659L6.25622 10.1184C6.16638 10.0705 6.06663 10.0449 5.96455 10.042H5.80647C5.75163 10.0501 5.69797 10.0676 5.64897 10.0945L3.0648 11.4484C2.93705 11.5125 2.79238 11.5353 2.65063 11.5125C2.3053 11.4472 2.07488 11.1182 2.13147 10.7711L2.65063 7.90112C2.68505 7.69171 2.61563 7.47879 2.46455 7.33004L0.358134 5.28837C0.181968 5.11746 0.120718 4.86079 0.201218 4.62921C0.279385 4.39821 0.478884 4.22962 0.719801 4.19171L3.61897 3.77112C3.83947 3.74837 4.03313 3.61421 4.1323 3.41587L5.4098 0.796707C5.44013 0.738374 5.47922 0.684707 5.52647 0.639207L5.57897 0.598374C5.60638 0.568041 5.63788 0.542957 5.67288 0.522541L5.73647 0.499207L5.83563 0.458374H6.08122C6.30055 0.481124 6.49363 0.612374 6.59455 0.808374L7.88897 3.41587C7.9823 3.60662 8.16372 3.73904 8.37313 3.77112L11.2723 4.19171C11.5173 4.22671 11.7221 4.39587 11.8031 4.62921C11.8796 4.86312 11.8136 5.11979 11.634 5.28837L9.4523 7.35337Z" fill="#FFAC37"/>
</svg>
